<!--<?xml version="1.0" standalone="no"?>-->
<!--<!DOCTYPE svg PUBLIC "-//W3C//DTD SVG 20010904//EN"-->
<!-- "http://www.w3.org/TR/2001/REC-SVG-20010904/DTD/svg10.dtd">-->
<svg version="1.0" xmlns="http://www.w3.org/2000/svg"
 width="200.000000px" height="100.000000px" viewBox="0 0 200.000000 100.000000"
 preserveAspectRatio="xMidYMid meet">

<g transform="translate(0.000000,100.000000) scale(0.100000,-0.100000)"
fill="#ffffff" stroke="none">
<path d="M1085 600 c-10 -11 -25 -20 -34 -20 -20 0 -61 -27 -61 -41 0 -5 9 0
20 11 11 11 29 20 39 20 20 0 20 -1 0 -57 -29 -85 -45 -106 -79 -101 -16 2
-27 1 -24 -4 10 -16 51 -8 71 15 12 12 30 50 42 85 11 35 30 71 42 81 13 11
18 20 12 24 -6 4 -18 -2 -28 -13z"/>
<path d="M692 587 c-43 -21 -44 -21 -58 -3 -7 11 -16 17 -19 14 -3 -3 2 -13
11 -23 19 -19 48 -15 97 15 43 26 23 24 -31 -3z"/>
<path d="M766 595 c-8 -8 -19 -15 -25 -15 -5 0 -13 -10 -17 -22 -3 -12 -22
-46 -41 -76 -24 -36 -32 -57 -25 -64 12 -12 32 -2 32 15 0 7 -4 6 -10 -3 -9
-13 -10 -13 -10 1 0 8 7 24 15 35 15 19 15 19 10 -1 -3 -11 1 -6 9 10 8 17 15
35 16 41 0 6 15 28 33 49 25 28 38 37 51 32 19 -7 19 -35 2 -92 -4 -11 0 -6 8
10 19 37 20 67 4 83 -16 16 -33 15 -52 -3z"/>
<path d="M1167 549 c-4 -14 -11 -20 -21 -16 -13 5 -14 3 -5 -11 9 -14 7 -27
-7 -57 -11 -21 -24 -40 -30 -42 -21 -7 -23 25 -4 63 22 42 20 58 -3 22 -24
-38 -29 -74 -12 -88 11 -9 19 -10 28 -1 10 8 17 7 25 -1 10 -10 17 -10 33 0
15 10 24 10 34 2 22 -18 85 8 85 36 0 29 39 79 52 66 15 -15 -9 -79 -35 -97
-12 -8 -16 -15 -10 -15 7 0 15 4 18 10 4 6 13 5 26 -3 17 -10 23 -9 39 13 28
36 24 50 -4 15 -42 -52 -45 -26 -9 71 5 14 -22 25 -42 17 -9 -3 -27 -27 -40
-54 -24 -46 -53 -67 -75 -54 -16 10 -12 33 8 44 10 6 12 11 4 11 -10 0 -10 5
-1 21 7 14 17 19 30 16 20 -5 26 7 8 18 -15 10 -43 -19 -64 -65 -16 -36 -41
-57 -53 -45 -3 3 4 35 17 71 12 36 20 68 18 70 -2 3 -7 -5 -10 -17z"/>
<path d="M858 523 c-23 -29 -39 -74 -33 -94 7 -21 25 -25 41 -9 5 5 24 10 42
12 22 2 32 7 32 19 0 9 10 24 23 32 12 9 17 16 10 16 -6 1 -23 -12 -36 -29
-14 -16 -30 -30 -36 -30 -13 0 -13 0 0 39 8 24 8 35 -1 46 -16 19 -24 19 -42
-2z m24 -58 c-22 -46 -38 -56 -48 -31 -6 15 22 77 40 88 25 16 29 -13 8 -57z"/>
<path d="M782 441 c-14 -46 -15 -68 -3 -75 5 -4 7 3 4 13 -3 11 0 36 7 56 7
20 10 38 8 41 -3 2 -10 -13 -16 -35z"/>
</g>
</svg>
